<?xml version="1.0" encoding="UTF-8"?>
<svg width="25px" height="22px" viewBox="0 0 25 22" version="1.1" xmlns="http://www.w3.org/2000/svg" xmlns:xlink="http://www.w3.org/1999/xlink">
    <g id="Page-1" stroke="none" stroke-width="1" fill="none" fill-rule="evenodd">
        <g id="Homepage" transform="translate(-1331.000000, -75.000000)" fill="#000000">
            <g id="Header" transform="translate(228.000000, 56.000000)">
                <g id="Icons" transform="translate(961.000000, 9.000000)">
                    <g id="Cart" transform="translate(141.000000, 0.000000)">
                        <path d="M20.794228,26.005632 C22.513092,26.005632 23.91102,27.349968 23.91102,29.002728 C23.91102,30.655152 22.513092,32.000112 20.794228,32.000112 C19.075364,32.000112 17.676708,30.655152 17.676708,29.002728 C17.676708,27.349968 19.075364,26.005632 20.794228,26.005632 Z M20.794228,30.201744 C21.482048,30.201744 22.041096,29.66388 22.041096,29.002728 C22.041096,28.341552 21.482048,27.803712 20.794228,27.803712 C20.106408,27.803712 19.54736,28.341552 19.54736,29.002728 C19.54736,29.66388 20.106408,30.201744 20.794228,30.201744 Z M25.80116,14.42112 C25.978008,14.639256 26.041344,14.923176 25.972436,15.191496 L23.696596,24.03348 C23.593584,24.434568 23.219028,24.716352 22.78878,24.716352 L8.231608,24.716352 C7.799288,24.716352 7.42266,24.430896 7.322392,24.026136 L4.28288,11.798496 L1.935332,11.798496 C1.418788,11.798496 1.000384,11.395872 1.000384,10.899312 C1.000384,10.402464 1.418788,10.000128 1.935332,10.000128 L5.02082,10.000128 C5.45384,10.000128 5.829796,10.285896 5.930736,10.690344 L6.772416,14.076312 L25.06462,14.076312 C25.352124,14.076312 25.62364,14.203272 25.80116,14.42112 Z M22.057784,22.917984 L23.869972,15.87468 L7.21938,15.87468 L8.970276,22.917984 L22.057784,22.917984 Z M9.478476,26.005632 C11.19734,26.005632 12.595996,27.349968 12.595996,29.002728 C12.595996,30.655152 11.19734,32.000112 9.478476,32.000112 C7.760312,32.000112 6.361684,30.655152 6.361684,29.002728 C6.361684,27.349968 7.759612,26.005632 9.478476,26.005632 Z M9.478476,30.201744 C10.166296,30.201744 10.725344,29.66388 10.725344,29.002728 C10.725344,28.341552 10.166296,27.803712 9.478476,27.803712 C8.791356,27.803712 8.231608,28.341552 8.231608,29.002728 C8.231608,29.66388 8.791356,30.201744 9.478476,30.201744 Z" id="Combined-shape-164"></path>
                    </g>
                </g>
            </g>
        </g>
    </g>
</svg>
