<?xml version="1.0" encoding="UTF-8"?>
<svg width="22px" height="20px" viewBox="0 0 22 20" version="1.1" xmlns="http://www.w3.org/2000/svg" xmlns:xlink="http://www.w3.org/1999/xlink">
    <g id="Page-1" stroke="none" stroke-width="1" fill="none" fill-rule="evenodd">
        <g id="Homepage" transform="translate(-1262.000000, -76.000000)" fill="#000000">
            <g id="Header" transform="translate(228.000000, 56.000000)">
                <g id="Icons" transform="translate(961.000000, 9.000000)">
                    <path d="M93.212606,12.859538 C95.595636,15.335902 95.595636,19.364982 93.212606,21.840114 L84.673244,30.71267 C84.488748,30.904202 84.247182,30.999968 84.005616,30.999968 C83.944334,30.999968 83.883078,30.99416 83.821822,30.98162 C83.640108,30.947344 83.466766,30.85831 83.326834,30.71267 L74.787446,21.840114 C72.404416,19.364982 72.404416,15.335902 74.787446,12.859538 C75.941716,11.660208 77.476808,11.000274 79.109348,11.000274 C80.741914,11.000274 82.27698,11.660208 83.43125,12.859538 L84.000026,13.450634 L84.568828,12.859538 C85.723774,11.660208 87.258164,11.000274 88.890704,11.000274 C90.52327,11.000274 92.058336,11.660208 93.212606,12.859538 Z M91.87735,20.452926 C93.524502,18.742052 93.524502,15.958524 91.87735,14.246726 C91.080216,13.417898 90.019234,12.962036 88.890704,12.962036 C87.762902,12.962036 86.70192,13.417898 85.904084,14.246726 L84.66768,15.532318 C84.313326,15.90007 83.686752,15.90007 83.332398,15.532318 L82.095292,14.246726 C81.298158,13.417898 80.237176,12.962036 79.109348,12.962036 C77.980844,12.962036 76.919862,13.417898 76.122026,14.246726 C74.475576,15.958524 74.475576,18.74236 76.122026,20.452926 L84.000026,28.637718 L91.87735,20.452926 Z" id="Combined-shape-165"></path>
                </g>
            </g>
        </g>
    </g>
</svg>
