<?xml version="1.0" encoding="UTF-8"?>
<svg width="50px" height="50px" viewBox="0 0 50 50" version="1.1" xmlns="http://www.w3.org/2000/svg" xmlns:xlink="http://www.w3.org/1999/xlink">
    <g id="Page-1" stroke="none" stroke-width="1" fill="none" fill-rule="evenodd">
        <g id="Homepage" transform="translate(-721.000000, -2153.000000)">
            <g id="Featured" transform="translate(229.000000, 1669.000000)">
                <g id="Products" transform="translate(0.000000, 147.000000)">
                    <g id="Product-2" transform="translate(292.000000, 0.000000)">
                        <g id="Add-to-favorites" transform="translate(198.000000, 335.000000)">
                            <g id="Group-3">
                                <path d="M26.999838,2.000061 C40.807206,2.000061 51.999732,13.192972 51.999732,26.999896 C51.999732,40.807138 40.807206,52.000049 26.999838,52.000049 C13.193118,52.000049 1.99989,40.807138 1.99989,26.999896 C1.99989,13.192972 13.193118,2.000061 26.999838,2.000061 Z" id="Ellipse" fill="#FFFFFF"></path>
                                <path d="M36.212398,19.859626 C38.59613,22.33599 38.59613,26.36474 36.212398,28.840202 L27.673036,37.712758 C27.489242,37.90429 27.246974,37.999748 27.005382,37.999748 C26.944126,37.999748 26.88287,37.994226 26.82229,37.981686 C26.640576,37.947432 26.466532,37.858398 26.327302,37.712758 L17.787238,28.840202 C15.404208,26.36474 15.404208,22.33599 17.787238,19.859626 C18.941508,18.659988 20.4766,18.000054 22.10914,18.000054 C23.74168,18.000054 25.276772,18.659988 26.431042,19.859626 L26.999818,20.450414 L27.568594,19.859626 C28.723566,18.659988 30.257956,18.000054 31.891198,18.000054 C33.523738,18.000054 35.058128,18.659988 36.212398,19.859626 Z M34.877818,27.453014 C36.524294,25.74214 36.524294,22.95859 34.877116,21.246792 C34.079982,20.417986 33.019,19.962124 31.891198,19.962124 C30.762694,19.962124 29.701712,20.417986 28.904578,21.246792 L27.668148,22.532098 C27.313092,22.89985 26.68722,22.89985 26.33219,22.532098 L25.09576,21.246792 C24.297924,20.417986 23.236942,19.962124 22.10914,19.962124 C20.981312,19.962124 19.92033,20.417986 19.12252,21.246792 C17.475342,22.95859 17.475342,25.74214 19.12252,27.453014 L26.999818,35.637806 L34.877818,27.453014 Z" id="Combined-shape-307" fill="#000000"></path>
                            </g>
                        </g>
                    </g>
                </g>
            </g>
        </g>
    </g>
</svg>
