<?xml version="1.0" encoding="UTF-8"?>
<svg width="20px" height="20px" viewBox="0 0 20 20" version="1.1" xmlns="http://www.w3.org/2000/svg" xmlns:xlink="http://www.w3.org/1999/xlink">
    <g id="Page-1" stroke="none" stroke-width="1" fill="none" fill-rule="evenodd">
        <g id="Homepage" transform="translate(-1191.000000, -76.000000)" fill="#000000">
            <g id="Header" transform="translate(228.000000, 56.000000)">
                <g id="Icons" transform="translate(961.000000, 9.000000)">
                    <path d="M10.44768,10.999968 C15.112104,10.999968 18.890976,14.778768 18.890976,19.443288 C18.890976,21.475416 18.173208,23.340192 16.977168,24.797136 L21.752304,29.571792 C22.078104,29.897928 22.078104,30.424464 21.752304,30.750936 C21.425784,31.077384 20.898768,31.077384 20.572968,30.750936 L15.797856,25.976568 C14.340744,27.171912 12.475656,27.89028 10.443504,27.89028 C5.783256,27.88632 2.000208,24.10752 2.000208,19.443288 C2.000208,14.778768 5.783256,10.999968 10.44768,10.999968 Z M10.44768,26.22132 C14.189664,26.22132 17.226408,23.18508 17.226408,19.443288 C17.226408,15.700896 14.189664,12.664968 10.44768,12.664968 C6.705696,12.664968 3.668952,15.700896 3.668952,19.443288 C3.668952,23.18508 6.70152,26.22132 10.44768,26.22132 Z" id="Combined-shape-168"></path>
                </g>
            </g>
        </g>
    </g>
</svg>
